<svg xmlns="http://www.w3.org/2000/svg" width="24" height="24" fill="none" viewBox="0 0 24 24"><g id="heart-pulse"><g id="Group"><g id="Group_2"><g id="Group_3"><path id="Vector" fill="#171A1F" d="M21 8.5C21 7.30653 20.5256 6.16227 19.6816 5.31836C18.8377 4.47445 17.6935 4 16.5 4C15.7202 4 15.1131 4.10999 14.5518 4.35449C13.984 4.60181 13.4 5.01407 12.707 5.70703C12.3165 6.09756 11.6835 6.09756 11.293 5.70703C10.6 5.01407 10.016 4.60181 9.44824 4.35449C8.88687 4.10999 8.27982 4 7.5 4C6.30653 4 5.16227 4.47445 4.31836 5.31836C3.47445 6.16227 3 7.30653 3 8.5C3 10.116 3.91951 11.4583 5.15039 12.7363L12 19.5859L18.2998 13.2861L18.8447 12.7354C20.0754 11.446 21 10.1064 21 8.5ZM23 8.5C23 11.2396 21.1925 13.2488 19.7061 14.7061L19.707 14.707L12.707 21.707C12.3165 22.0976 11.6835 22.0976 11.293 21.707L4.30469 14.7188L3.73047 14.1465C2.37747 12.749 1 10.9088 1 8.5C1 6.77609 1.68433 5.12231 2.90332 3.90332C4.12231 2.68433 5.77609 2 7.5 2C8.48018 2 9.37344 2.14001 10.2471 2.52051C10.8603 2.78761 11.4318 3.16121 12 3.6416C12.5682 3.16121 13.1397 2.78761 13.7529 2.52051C14.6266 2.14001 15.5198 2 16.5 2C18.2239 2 19.8777 2.68433 21.0967 3.90332C22.3157 5.12231 23 6.77609 23 8.5Z"/></g><g id="Group_4"><path id="Vector_2" fill="#171A1F" d="M13.9368 7.50201C14.359 7.47527 14.7525 7.71759 14.9192 8.1065L16.1594 11.0001H20.7698L20.8723 11.0049C21.3765 11.0562 21.7698 11.4823 21.7698 12.0001C21.7698 12.5178 21.3765 12.9439 20.8723 12.9952L20.7698 13.0001H15.5002C15.1002 13.0001 14.7389 12.7613 14.5813 12.3936L14.1887 11.4776L12.9612 15.7745C12.8456 16.179 12.4892 16.4677 12.0696 16.4971C11.7024 16.5228 11.3558 16.3454 11.1604 16.043L11.0862 15.9063L9.77661 12.96C9.68796 12.9856 9.59527 13 9.50024 13.0001L3.21997 13.0001C2.66769 13.0001 2.21997 12.5523 2.21997 12.0001C2.21997 11.4478 2.66769 11.0001 3.21997 11.0001L8.88208 11.0001L9.10571 10.5528L9.17896 10.4297C9.36854 10.1567 9.68413 9.99236 10.0227 10.0001C10.4095 10.0088 10.7561 10.2403 10.9133 10.5938L11.7942 12.5772L13.0383 8.22564L13.093 8.07818C13.2456 7.74996 13.5674 7.52542 13.9368 7.50201Z"/></g></g></g></g></svg>