<svg xmlns="http://www.w3.org/2000/svg" width="17" height="16" fill="none" viewBox="0 0 17 16"><g id="Move right"><g id="Group"><g id="Group_2"><g id="Group_3"><path id="Vector" fill="#565E6D" d="M11.907 4.84628C12.1523 4.60098 12.5402 4.58584 12.8033 4.80048L12.8544 4.84628L15.5344 7.52629L15.5802 7.57735C15.7948 7.84046 15.7796 8.22839 15.5344 8.47367L12.8544 11.1537C12.5927 11.4154 12.1686 11.4154 11.907 11.1537C11.6453 10.892 11.6453 10.4679 11.907 10.2063L14.1132 7.99998L11.907 5.7937L11.8611 5.74267C11.6465 5.47951 11.6616 5.09157 11.907 4.84628Z"/></g><g id="Group_4"><path id="Vector_2" fill="#565E6D" d="M15.0906 7.33008C15.4607 7.33008 15.7606 7.63004 15.7606 8.00008C15.7606 8.37012 15.4607 8.67008 15.0906 8.67008L1.69063 8.67008C1.3206 8.67008 1.02063 8.37012 1.02063 8.00008C1.02063 7.63004 1.3206 7.33008 1.69063 7.33008L15.0906 7.33008Z"/></g></g></g></g></svg>