<svg xmlns="http://www.w3.org/2000/svg" width="24" height="24" fill="none" viewBox="0 0 24 24"><g id="package"><g id="Group"><g id="Group_2"><g id="Group_3"><path id="Vector" fill="#171A1F" d="M12 1.00208C12.5249 1.00208 13.0401 1.14078 13.4951 1.40247L13.4961 1.40149L20.4961 5.40149L20.5 5.40442L20.667 5.50793C21.0483 5.76278 21.3673 6.10252 21.5977 6.5011C21.8608 6.95647 21.9995 7.47322 22 7.99915L22 16.0011C21.9995 16.5271 21.8608 17.0438 21.5977 17.4991C21.3344 17.9546 20.9556 18.3328 20.5 18.5958L20.4961 18.5988L13.4961 22.5988L13.4951 22.5978C13.0401 22.8594 12.5249 22.9982 12 22.9982C11.4748 22.9982 10.9591 22.8597 10.5039 22.5978V22.5988L3.50391 18.5988L3.5 18.5958C3.04444 18.3328 2.6656 17.9546 2.40234 17.4991C2.17201 17.1006 2.03732 16.655 2.00684 16.1974L2 16.0011L2 7.99915L2.00684 7.80188C2.03742 7.3446 2.17219 6.89942 2.40234 6.5011C2.66559 6.04569 3.04448 5.66746 3.5 5.40442L3.50391 5.40149L10.5039 1.40149C10.9591 1.13953 11.4748 1.00208 12 1.00208ZM12 3.00208C11.8245 3.00208 11.652 3.04813 11.5 3.13586L11.4961 3.13782L4.49902 7.13489L4.5 7.13586C4.34813 7.22355 4.22155 7.35024 4.13379 7.50208C4.04623 7.65377 4.00018 7.82593 4 8.00109L4 15.9991L4.00879 16.13C4.02601 16.2593 4.06815 16.3845 4.13379 16.4982C4.22077 16.6486 4.34602 16.7739 4.49609 16.8615L11.4961 20.8615L11.5 20.8644L11.6172 20.922C11.7381 20.9721 11.8682 20.9982 12 20.9982C12.1755 20.9982 12.348 20.9521 12.5 20.8644L12.5039 20.8615L19.5039 16.8615C19.654 16.7739 19.7792 16.6486 19.8662 16.4982C19.9536 16.3468 19.9996 16.175 20 16.0001L20 8.00109L19.9912 7.87024C19.974 7.74095 19.9318 7.61576 19.8662 7.50208C19.7785 7.35024 19.6519 7.22355 19.5 7.13586L12.5039 3.13782L12.5 3.13586C12.348 3.04813 12.1755 3.00208 12 3.00208Z"/></g><g id="Group_4"><path id="Vector_2" fill="#171A1F" d="M11 22L11 12C11 11.4477 11.4477 11 12 11C12.5523 11 13 11.4477 13 12L13 22C13 22.5523 12.5523 23 12 23C11.4477 23 11 22.5523 11 22Z"/></g><g id="Group_5"><path id="Vector_3" fill="#171A1F" d="M20.2119 6.13276C20.6908 5.85785 21.3021 6.02309 21.5771 6.5019C21.852 6.98084 21.6868 7.59215 21.208 7.86714L12.498 12.8671C12.2283 13.0219 11.9043 13.0417 11.621 12.9257L11.5019 12.8671L2.79194 7.86714L2.706 7.81147C2.29433 7.51598 2.16507 6.95087 2.4228 6.5019C2.68054 6.05314 3.23357 5.87959 3.69624 6.08589L3.78804 6.13276L11.9999 10.8466L20.2119 6.13276Z"/></g><g id="Group_6"><path id="Vector_4" fill="#171A1F" d="M6.63179 3.77289C6.889 3.32365 7.4422 3.14993 7.90523 3.3559L7.99702 3.4018L16.997 8.55219L17.083 8.60687C17.4952 8.9017 17.6251 9.46706 17.3681 9.91644C17.111 10.3658 16.5578 10.5403 16.0947 10.3344L16.0029 10.2875L7.00288 5.13812L6.91695 5.08246C6.50487 4.78753 6.37468 4.22221 6.63179 3.77289Z"/></g></g></g></g></svg>