<svg xmlns="http://www.w3.org/2000/svg" width="37" height="44" fill="none" viewBox="0 0 37 44"><g id="Key / undefined / Glyph: undefined" clip-path="url(#clip0_9_2017)"><path id="Vector" fill="#ABB1BB" d="M18.9573 16.1686C21.7447 13.0007 26.2113 13.0728 28.9227 16.3293C31.6213 19.5705 31.6627 24.702 28.8623 27.8847C26.0749 31.0526 21.6083 30.9806 18.8969 27.724C18.499 27.2462 18.1647 26.7076 17.8906 26.148C17.3564 26.7125 16.5314 26.6857 16.0251 26.0776L14.7122 24.5007L13.3625 26.0346C12.8301 26.6398 11.9787 26.626 11.4608 26.004L10.1479 24.4271L9.18386 25.5228C8.43848 26.3699 7.24644 26.3507 6.52135 25.4798L4.64581 23.2272C3.92073 22.3563 3.93719 20.9636 4.68257 20.1164L6.35735 18.213C6.9198 17.5738 7.67663 17.2217 8.46125 17.2344L17.9486 17.3874C18.0315 17.3888 18.1239 17.3408 18.1888 17.2358C18.4086 16.8803 18.6587 16.508 18.9573 16.1686ZM27.1683 23.1461C27.7008 22.541 27.7125 21.5461 27.1946 20.9241C26.6767 20.302 25.8252 20.2883 25.2928 20.8934C24.7604 21.4985 24.7486 22.4933 25.2666 23.1154C25.7844 23.7374 26.6359 23.7512 27.1683 23.1461Z"/></g><defs><clipPath id="clip0_9_2017"><rect width="28.14" height="28.02" fill="#fff" transform="matrix(0.639852 0.768498 -0.660575 0.75076 18.8759 0.567139)"/></clipPath></defs></svg>