<svg xmlns="http://www.w3.org/2000/svg" width="16" height="16" fill="none" viewBox="0 0 16 16"><g id="pill" clip-path="url(#clip0_6_476)"><g id="Group"><g id="Group_2"><g id="Group_3"><path id="Vector" fill="#171A1F" d="M11.3534 0.639943C11.8803 0.637283 12.403 0.739204 12.8903 0.939614C13.3775 1.14002 13.8199 1.43535 14.1924 1.80787C14.5649 2.18038 14.8603 2.62271 15.0606 3.10992C15.261 3.59722 15.363 4.11996 15.3603 4.64686C15.3576 5.17366 15.2503 5.69471 15.045 6.17988C14.8405 6.663 14.5422 7.10038 14.1682 7.46821L14.1688 7.46881L7.46881 14.1688C7.10105 14.5429 6.663 14.8405 6.17988 15.045C5.69471 15.2503 5.17366 15.3576 4.64686 15.3603C4.11996 15.363 3.59722 15.261 3.10992 15.0606C2.62271 14.8603 2.18038 14.5649 1.80787 14.1924C1.43535 13.8199 1.14002 13.3775 0.939614 12.8903C0.739204 12.403 0.637283 11.8803 0.639943 11.3534C0.642643 10.8266 0.750038 10.3055 0.955319 9.82038C1.16059 9.33523 1.4598 8.89558 1.836 8.52681L8.53143 1.83142C8.89919 1.45739 9.33724 1.15976 9.82038 0.955319C10.3055 0.750038 10.8266 0.642643 11.3534 0.639943ZM11.3606 1.97994C11.0108 1.98171 10.6646 2.05301 10.3425 2.18932C10.0204 2.32562 9.72825 2.52446 9.48343 2.77426L2.77426 9.48343C2.52446 9.72825 2.32562 10.0204 2.18932 10.3425C2.05301 10.6646 1.98171 11.0108 1.97994 11.3606C1.9782 11.7103 2.04582 12.0572 2.17885 12.3806C2.31189 12.7041 2.508 12.9977 2.75529 13.2449C3.00258 13.4922 3.29619 13.6884 3.61961 13.8214C3.94307 13.9544 4.28992 14.0221 4.63966 14.0203C4.98945 14.0185 5.3356 13.9472 5.65775 13.811C5.97985 13.6746 6.27204 13.4758 6.51684 13.226L13.226 6.51684L13.3176 6.42262C13.5248 6.19837 13.6917 5.93956 13.811 5.65775C13.9472 5.3356 14.0185 4.98945 14.0203 4.63966C14.0221 4.28992 13.9544 3.94307 13.8214 3.61961C13.6884 3.29619 13.4922 3.00258 13.2449 2.75529C12.9977 2.508 12.7041 2.31189 12.3806 2.17885C12.0572 2.04582 11.7103 1.9782 11.3606 1.97994Z"/></g><g id="Group_4"><path id="Vector_2" fill="#171A1F" d="M5.18148 5.18148C5.42678 4.93618 5.81472 4.92105 6.07787 5.13568L6.1289 5.18148L10.8189 9.8715L10.8647 9.92255C11.0794 10.1857 11.0642 10.5736 10.8189 10.8189C10.5736 11.0642 10.1857 11.0794 9.92255 10.8647L9.8715 10.8189L5.18148 6.1289L5.13568 6.07787C4.92105 5.81472 4.93618 5.42678 5.18148 5.18148Z"/></g></g></g></g><defs><clipPath id="clip0_6_476"><rect width="16" height="16" fill="#fff"/></clipPath></defs></svg>