<svg xmlns="http://www.w3.org/2000/svg" width="24" height="24" fill="none" viewBox="0 0 24 24"><g id="scale"><g id="Group"><g id="Group_2"><g id="Group_3"><path id="Vector" fill="#171A1F" d="M19 7C19.4167 7 19.7901 7.25831 19.9365 7.64844L22.9365 15.6484C23.0927 16.0648 22.9548 16.5345 22.5986 16.8008C21.5568 17.5791 20.297 18 19 18C17.703 18 16.4432 17.5791 15.4014 16.8008C15.0452 16.5345 14.9073 16.0648 15.0635 15.6484L18.0635 7.64844L18.1289 7.50879C18.3041 7.19791 18.6353 7 19 7ZM17.2246 15.5811C17.7758 15.8544 18.3816 16 19 16C19.6181 16 20.2234 15.8541 20.7744 15.5811L19 10.8486L17.2246 15.5811Z"/></g><g id="Group_4"><path id="Vector_2" fill="#171A1F" d="M4.99999 7C5.41673 7 5.79007 7.25831 5.93652 7.64844L8.93652 15.6484C9.09266 16.0648 8.95478 16.5345 8.59863 16.8008C7.55684 17.5791 6.29703 18 4.99999 18C3.70296 18 2.44315 17.5791 1.40136 16.8008C1.04521 16.5345 0.907332 16.0648 1.06347 15.6484L4.06347 7.64844L4.1289 7.50879C4.30409 7.19791 4.63531 7 4.99999 7ZM3.2246 15.5811C3.7758 15.8544 4.38156 16 4.99999 16C5.61814 16 6.22342 15.8541 6.77441 15.5811L4.99999 10.8486L3.2246 15.5811Z"/></g><g id="Group_5"><path id="Vector_3" fill="#171A1F" d="M17 20C17.5523 20 18 20.4477 18 21C18 21.5523 17.5523 22 17 22L7 22C6.44772 22 6 21.5523 6 21C6 20.4477 6.44772 20 7 20L17 20Z"/></g><g id="Group_6"><path id="Vector_4" fill="#171A1F" d="M11 21L11 3C11 2.44772 11.4477 2 12 2C12.5523 2 13 2.44772 13 3L13 21C13 21.5523 12.5523 22 12 22C11.4477 22 11 21.5523 11 21Z"/></g><g id="Group_7"><path id="Vector_5" fill="#171A1F" d="M11.6602 4.05957C11.9161 3.96705 12.2008 3.98226 12.4473 4.10548L12.8213 4.28711C14.7407 5.18918 17.3374 6.00001 19 6.00001L21 6.00001C21.5523 6.00001 22 6.44773 22 7.00001C22 7.55229 21.5523 8 21 8H19C16.929 8 14.0476 7.06707 12 6.10939C9.95245 7.06707 7.07096 8 5 8H3C2.44772 8 2 7.55229 2 7.00001C2 6.44773 2.44772 6.00001 3 6.00001L5 6.00001C6.77342 6.00001 9.60934 5.07718 11.5527 4.10548L11.6602 4.05957Z"/></g></g></g></g></svg>