<svg xmlns="http://www.w3.org/2000/svg" width="24" height="24" fill="none" viewBox="0 0 24 24"><g id="trending-up"><g id="Group"><g id="Group_2"><g id="Group_3"><path id="Vector" fill="#171A1F" d="M21.293 6.29289C21.6835 5.90237 22.3165 5.90237 22.707 6.29289C23.0975 6.68342 23.0975 7.31643 22.707 7.70696L14.207 16.2069C13.8165 16.5974 13.1835 16.5974 12.793 16.2069L8.49999 11.9139L2.70702 17.7069C2.31649 18.0974 1.68348 18.0974 1.29295 17.7069C0.902431 17.3164 0.902431 16.6834 1.29295 16.2929L7.79295 9.79289L7.86913 9.72453C8.2619 9.40418 8.8409 9.42678 9.20702 9.79289L13.5 14.0858L21.293 6.29289Z"/></g><g id="Group_4"><path id="Vector_2" fill="#171A1F" d="M21 13V8L16 8C15.4477 8 15 7.55228 15 7C15 6.44772 15.4477 6 16 6L22 6L22.1025 6.00488C22.6067 6.05621 23 6.48232 23 7V13C23 13.5523 22.5523 14 22 14C21.4477 14 21 13.5523 21 13Z"/></g></g></g></g></svg>